<svg xmlns="http://www.w3.org/2000/svg" width="256" height="256" viewBox="0 0 100 100"><rect width="100" height="100" rx="50" fill="#4e4eda"></rect><path d="M38.45 79.76L38.45 79.76Q37.22 79.76 36.22 78.88Q35.22 77.99 34.14 76.45L34.14 76.45Q30.67 71.52 28.83 64.94Q26.98 58.35 26.98 49.73L26.98 49.73Q26.98 41.11 29.13 34.45Q31.29 27.79 34.14 23.47L34.14 23.47Q36.14 20.24 38.45 20.24L38.45 20.24Q39.53 20.24 40.34 20.86Q41.14 21.47 41.53 22.40L41.53 22.40Q37.37 27.71 35.10 34.60Q32.83 41.49 32.83 49.73L32.83 49.73Q32.83 57.97 34.87 64.59Q36.91 71.21 41.53 77.53L41.53 77.53Q41.14 78.45 40.34 79.11Q39.53 79.76 38.45 79.76ZM61.55 79.76L61.55 79.76Q60.47 79.76 59.66 79.11Q58.85 78.45 58.47 77.53L58.47 77.53Q63.09 71.21 65.13 64.59Q67.17 57.97 67.17 49.73L67.17 49.73Q67.17 41.49 64.90 34.60Q62.63 27.71 58.47 22.40L58.47 22.40Q58.85 21.47 59.66 20.86Q60.47 20.24 61.55 20.24L61.55 20.24Q63.86 20.24 65.86 23.47L65.86 23.47Q68.71 27.79 70.87 34.45Q73.02 41.11 73.02 49.73L73.02 49.73Q73.02 58.35 71.17 64.94Q69.33 71.52 65.86 76.45L65.86 76.45Q64.78 77.99 63.78 78.88Q62.78 79.76 61.55 79.76Z" fill="#fff"></path></svg>